<svg xmlns="http://www.w3.org/2000/svg" width="180" height="180" viewBox="0 0 180 180">
  <rect width="180" height="180" fill="#fff"/>
  <path d="M10 10h20v20H10zM40 10h20v20H40zM70 10h20v20H70zM100 10h20v20h-20zM130 10h20v20h-20zM10 40h20v20H10zM40 40h20v20H40zM70 40h20v20H70zM100 40h20v20h-20zM130 40h20v20h-20zM10 70h20v20H10zM40 70h20v20H40zM70 70h20v20H70zM100 70h20v20h-20zM130 70h20v20h-20zM10 100h20v20H10zM40 100h20v20H40zM70 100h20v20H70zM100 100h20v20h-20zM130 100h20v20h-20zM10 130h20v20H10zM40 130h20v20H40zM70 130h20v20H70zM100 130h20v20h-20zM130 130h20v20h-20z" fill="#000"/>
</svg> 